HIERARCHY
ROOT Hips
{
 OFFSET 0.000000 0.000000 0.000000
 CHANNELS 6 Xposition Yposition Zposition Yrotation Xrotation Zrotation
 JOINT Chest
 {
  OFFSET 0.000000 9.585900 0.002600
  CHANNELS 3 Yrotation Xrotation Zrotation
  JOINT Chest2
  {
   OFFSET 0.000000 9.601200 -0.005300
   CHANNELS 3 Yrotation Xrotation Zrotation
   JOINT Chest3
   {
    OFFSET 0.000000 9.561800 0.000000
    CHANNELS 3 Yrotation Xrotation Zrotation
    JOINT Chest4
    {
     OFFSET 0.000000 9.552100 0.000000
     CHANNELS 3 Yrotation Xrotation Zrotation
     JOINT Neck
     {
      OFFSET 0.000000 14.453000 0.000000
      CHANNELS 3 Yrotation Xrotation Zrotation
      JOINT Head
      {
       OFFSET 0.000000 8.936500 -0.011300
       CHANNELS 3 Yrotation Xrotation Zrotation
       End Site
       {
        OFFSET 0.000000 17.073600 -0.006000
       }
      }
     }
     JOINT RightCollar
     {
      OFFSET -2.921100 9.558500 0.000000
      CHANNELS 3 Yrotation Xrotation Zrotation
      JOINT RightShoulder
      {
       OFFSET -13.519700 0.000000 0.000000
       CHANNELS 3 Yrotation Xrotation Zrotation
       JOINT RightElbow
       {
        OFFSET 0.000000 -29.696600 0.000000
        CHANNELS 3 Yrotation Xrotation Zrotation
        JOINT RightWrist
        {
         OFFSET 0.000000 -24.004700 0.000000
         CHANNELS 3 Yrotation Xrotation Zrotation
         End Site
         {
          OFFSET 0.000000 -17.728500 0.000000
         }
        }
       }
      }
     }
     JOINT LeftCollar
     {
      OFFSET 2.921100 9.558500 0.000000
      CHANNELS 3 Yrotation Xrotation Zrotation
      JOINT LeftShoulder
      {
       OFFSET 13.519700 0.000000 0.000000
       CHANNELS 3 Yrotation Xrotation Zrotation
       JOINT LeftElbow
       {
        OFFSET 0.000000 -29.696600 0.000000
        CHANNELS 3 Yrotation Xrotation Zrotation
        JOINT LeftWrist
        {
         OFFSET 0.000000 -24.004700 0.000000
         CHANNELS 3 Yrotation Xrotation Zrotation
         End Site
         {
          OFFSET 0.000000 -17.728500 0.000000
         }
        }
       }
      }
     }
    }
   }
  }
 }
 JOINT RightHip
 {
  OFFSET -7.771700 -0.012900 -0.001300
  CHANNELS 3 Yrotation Xrotation Zrotation
  JOINT RightKnee
  {
   OFFSET 0.000000 -40.869800 0.001200
   CHANNELS 3 Yrotation Xrotation Zrotation
   JOINT RightAnkle
   {
    OFFSET 0.000000 -39.717900 0.002100
    CHANNELS 3 Yrotation Xrotation Zrotation
    JOINT RightToe
    {
     OFFSET 0.000000 -4.965400 11.033500
     CHANNELS 3 Yrotation Xrotation Zrotation
     End Site
     {
      OFFSET 0.000000 -1.423100 5.872300
     }
    }
   }
  }
 }
 JOINT LeftHip
 {
  OFFSET 7.771700 -0.012900 -0.001300
  CHANNELS 3 Yrotation Xrotation Zrotation
  JOINT LeftKnee
  {
   OFFSET 0.000000 -40.869800 0.001200
   CHANNELS 3 Yrotation Xrotation Zrotation
   JOINT LeftAnkle
   {
    OFFSET 0.000000 -39.717900 0.002100
    CHANNELS 3 Yrotation Xrotation Zrotation
    JOINT LeftToe
    {
     OFFSET 0.000000 -4.965400 11.033500
     CHANNELS 3 Yrotation Xrotation Zrotation
     End Site
     {
      OFFSET 0.000000 -1.423100 5.872300
     }
    }
   }
  }
 }
}
MOTION
Frames: 14
Frame Time: 0.008333
0.000000 85.388000 0.000000 0.000000 -5.767877 0.000000 0.000000 11.653817 0.000000 0.000000 -5.885947 0.000000 0.000000 -0.000000 0.000000 0.000000 -0.000000 0.000000 0.000000 12.528835 0.000000 0.000000 0.711642 0.000000 0.000000 -0.000000 0.000000 0.000000 0.000000 -90.000000 0.000000 -2.309062 0.000000 0.000000 2.309062 0.000000 0.000000 -0.000000 0.000000 0.000000 -0.000000 90.000000 0.000000 -2.309062 0.000000 0.000000 2.309062 0.000000 0.000000 8.520406 0.000000 0.000000 1.905762 0.000000 -0.000000 -4.658285 0.000000 0.000000 -0.000000 0.000000 0.000000 8.520406 0.000000 0.000000 1.905762 0.000000 -0.000000 -4.658285 0.000000 0.000000 -0.000000 0.000000
-40.448557 62.103344 12.981559 175.065448 -51.246207 2.049584 3.230920 25.944621 2.283376 0.377348 4.197147 0.351651 0.620213 6.722138 0.585078 2.273880 21.156128 2.173382 7.031288 18.908520 0.785730 12.633523 -0.468097 -0.758825 5.288526 6.249473 5.580341 -5.881125 -36.276084 -14.611073 -153.652180 -45.287133 174.328286 21.884962 -1.734661 -9.354883 -8.340106 3.837503 0.872358 -3.030337 -6.287454 14.209883 -163.026008 -68.047739 152.090671 -3.214681 -17.195989 7.661779 3.955376 -16.097513 -7.709975 -0.563370 61.945845 -4.444587 1.803517 -7.933149 10.055447 0.160098 -0.450607 0.059361 -3.065400 -12.278066 0.324214 25.871264 76.120944 26.428505 1.276403 -12.202665 -4.159280 0.171698 0.734446 0.093329
-40.447234 62.104033 12.983805 175.072548 -51.269120 2.036834 3.225138 25.944773 2.285202 0.379279 4.208724 0.353704 0.616728 6.711381 0.581179 2.279106 21.172583 2.179298 6.972880 18.912513 0.787893 12.542885 -0.437101 -0.727889 5.278257 6.344375 5.590404 -5.705323 -36.026728 -14.691352 -153.284735 -45.501086 174.217598 21.885409 -1.579027 -9.509179 -8.359267 3.836797 0.802246 -3.031009 -6.296061 14.263184 -163.040609 -68.052703 152.102220 -3.220099 -17.196618 7.654437 3.946126 -16.072495 -7.699602 -0.560697 61.937863 -4.440775 1.803053 -7.931638 10.053616 0.158814 -0.448562 0.059945 -3.075232 -12.255467 0.331345 25.865382 76.119756 26.418488 1.295712 -12.197143 -4.167400 0.208515 0.734181 0.098088
-40.448061 62.104557 12.986525 175.079913 -51.293509 2.035032 3.216215 25.947852 2.272879 0.375424 4.200482 0.352852 0.616175 6.717200 0.583288 2.275311 21.176697 2.176546 6.919024 18.929728 0.795407 12.442410 -0.403404 -0.699127 5.284187 6.409626 5.602612 -5.528822 -35.727018 -14.777606 -152.906615 -45.718833 174.099366 21.880685 -1.405101 -9.703541 -8.358564 3.850136 0.766827 -3.068380 -6.322692 14.277127 -162.992298 -68.079387 152.068743 -3.225456 -17.188159 7.658149 3.938294 -16.046124 -7.700112 -0.552646 61.930408 -4.435568 1.797129 -7.929659 10.052105 0.159514 -0.446272 0.062163 -3.085932 -12.231663 0.331182 25.828909 76.123089 26.377112 1.270787 -12.197253 -4.153079 0.186319 0.732588 0.088734
-40.450007 62.104120 12.990253 175.094810 -51.313005 2.031559 3.190668 25.915918 2.245872 0.378768 4.226776 0.359827 0.615376 6.715795 0.582511 2.272426 21.181633 2.177566 6.896811 18.949945 0.799839 12.296582 -0.372563 -0.663143 5.278320 6.548768 5.624700 -5.317046 -35.491270 -14.880434 -152.519617 -45.937921 173.966940 21.870083 -1.213207 -9.916293 -8.354286 3.864974 0.726092 -3.086638 -6.334470 14.301383 -163.016872 -68.092526 152.088433 -3.229327 -17.182375 7.652649 3.925056 -16.026662 -7.704250 -0.549565 61.925227 -4.438185 1.792099 -7.926920 10.053523 0.162679 -0.446177 0.063810 -3.099428 -12.214802 0.323335 25.785778 76.121214 26.332302 1.259223 -12.187141 -4.149424 0.158976 0.727222 0.085125
-40.450810 62.103759 12.994096 175.105325 -51.335024 2.022447 3.179349 25.910687 2.238868 0.378374 4.225982 0.359721 0.614744 6.714479 0.582371 2.262888 21.183509 2.175374 6.877142 18.974699 0.805735 12.137986 -0.343077 -0.630248 5.277192 6.692293 5.655696 -5.084424 -35.245748 -15.001005 -152.126328 -46.158586 173.815231 21.853407 -1.007154 -10.113339 -8.341026 3.889695 0.706229 -3.104211 -6.355645 14.303892 -163.049733 -68.108991 152.108885 -3.201278 -17.194184 7.627523 3.914321 -16.003126 -7.700979 -0.533583 61.916677 -4.425704 1.788065 -7.925447 10.056693 0.165318 -0.443489 0.063440 -3.109772 -12.195969 0.322969 25.784649 76.121770 26.331383 1.243787 -12.184303 -4.146153 0.167532 0.724663 0.081918
-40.452303 62.102055 12.998974 175.105994 -51.347734 2.022480 3.175464 25.896444 2.232166 0.377392 4.218333 0.357570 0.615093 6.720777 0.584226 2.253676 21.150869 2.165897 6.758056 19.019643 0.810737 12.058805 -0.299688 -0.617867 5.278872 6.847322 5.699035 -4.835049 -34.967482 -15.136384 -151.731823 -46.389150 173.646033 21.833663 -0.805046 -10.263907 -8.330207 3.949390 0.689235 -3.118386 -6.383008 14.304317 -163.029026 -68.132033 152.078151 -3.198065 -17.197568 7.615852 3.908975 -15.994671 -7.695842 -0.533945 61.914341 -4.433480 1.781280 -7.918135 10.063703 0.170056 -0.446229 0.061719 -3.110177 -12.184176 0.319404 25.782848 76.116268 26.331497 1.244207 -12.184757 -4.153267 0.167178 0.730874 0.087604
-40.455089 62.100386 13.003642 175.110626 -51.361534 2.025458 3.166364 25.884181 2.218726 0.378376 4.231382 0.360907 0.612489 6.707305 0.580602 2.251051 21.150686 2.165224 6.661889 19.036388 0.806540 11.939160 -0.266785 -0.599522 5.282238 6.972548 5.736472 -4.572345 -34.681589 -15.281920 -151.342022 -46.633690 173.470533 21.814311 -0.622707 -10.344602 -8.319886 3.970404 0.649296 -3.131781 -6.391398 14.335597 -163.045263 -68.143875 152.083331 -3.209727 -17.190899 7.615486 3.908017 -15.983373 -7.700046 -0.535908 61.911873 -4.437214 1.775827 -7.913860 10.066352 0.175245 -0.446336 0.064290 -3.111543 -12.171773 0.309786 25.776852 76.109561 26.323728 1.249655 -12.183572 -4.155703 0.163341 0.735376 0.089910
-40.457005 62.100173 13.006987 175.112291 -51.387148 2.024993 3.161404 25.881711 2.210764 0.377163 4.225225 0.359784 0.611567 6.713511 0.582020 2.246581 21.150917 2.165121 6.584277 19.055275 0.804890 11.796834 -0.236576 -0.577147 5.299896 7.100001 5.774903 -4.309201 -34.385123 -15.429718 -150.964060 -46.886391 173.302935 21.798397 -0.463687 -10.346149 -8.301918 3.989352 0.605173 -3.150085 -6.398714 14.370641 -163.128265 -68.149000 152.148851 -3.223564 -17.189038 7.604604 3.908262 -15.958980 -7.696701 -0.545199 61.908532 -4.446691 1.773443 -7.907766 10.068074 0.176493 -0.449516 0.067531 -3.104936 -12.147788 0.305975 25.807248 76.104786 26.356322 1.241362 -12.183312 -4.149112 0.182594 0.734403 0.084962
-40.457045 62.103795 13.007123 175.132188 -51.443157 2.000033 3.151558 25.906297 2.216325 0.374316 4.225952 0.359975 0.611487 6.713166 0.582271 2.240895 21.151482 2.165380 6.551260 19.079708 0.808257 11.607359 -0.208941 -0.541630 5.326750 7.226647 5.814257 -4.052086 -34.073462 -15.575376 -150.597895 -47.141738 173.146362 21.790287 -0.332523 -10.274992 -8.280962 4.009063 0.559383 -3.179784 -6.429843 14.400520 -163.211997 -68.158379 152.210829 -3.242168 -17.172932 7.587973 3.890874 -15.898371 -7.679213 -0.554037 61.900833 -4.455500 1.773624 -7.901212 10.068334 0.178025 -0.459628 0.071543 -3.117500 -12.091230 0.314495 25.824169 76.104230 26.372661 1.231616 -12.181626 -4.145519 0.160580 0.727338 0.082122
-40.457622 62.103325 13.010254 175.143263 -51.468154 1.983302 3.148859 25.899817 2.218423 0.373208 4.226329 0.360184 0.610901 6.720521 0.585335 2.236372 21.151943 2.165743 6.444173 19.095778 0.805860 11.482127 -0.165822 -0.516078 5.354260 7.343020 5.851606 -3.798503 -33.747982 -15.717770 -150.247929 -47.400446 173.000118 21.792275 -0.234569 -10.143145 -8.258722 4.024692 0.515058 -3.220113 -6.509522 14.418960 -163.246270 -68.205658 152.209431 -3.263701 -17.161645 7.583265 3.880439 -15.872049 -7.667968 -0.537106 61.892963 -4.438731 1.764083 -7.899101 10.065205 0.179321 -0.456725 0.073726 -3.120556 -12.069805 0.322796 25.828995 76.107451 26.381206 1.225874 -12.181495 -4.146227 0.161134 0.724356 0.083146
-40.458011 62.100892 13.014736 175.152642 -51.478670 1.965927 3.148092 25.894332 2.225537 0.371554 4.204783 0.351616 0.613281 6.749511 0.597048 2.234806 21.152061 2.165908 6.329789 19.105845 0.800463 11.357476 -0.115987 -0.481212 5.378419 7.442722 5.883210 -3.540756 -33.410297 -15.863198 -149.926126 -47.661644 172.865958 21.809402 -0.170271 -9.960185 -8.224244 4.022895 0.422558 -3.272482 -6.564503 14.493717 -163.347936 -68.230961 152.266891 -3.252061 -17.180029 7.568089 3.878069 -15.862190 -7.652938 -0.534610 61.887228 -4.436984 1.759135 -7.896747 10.067431 0.177029 -0.454299 0.075567 -3.115228 -12.066662 0.336544 25.815219 76.116422 26.377777 1.214113 -12.178226 -4.148156 0.161296 0.716784 0.083711
-40.459540 62.101163 13.016818 175.171373 -51.510625 1.948924 3.136374 25.910621 2.224419 0.370000 4.191539 0.342633 0.612026 6.750678 0.600440 2.229281 21.154885 2.164334 6.252103 19.142066 0.808813 11.212075 -0.057391 -0.427911 5.417841 7.557282 5.922046 -3.282727 -33.061794 -16.014949 -149.641935 -47.923871 172.753636 21.852465 -0.134625 -9.738665 -8.186665 4.036383 0.356764 -3.310619 -6.607761 14.552139 -163.366144 -68.267681 152.258382 -3.264747 -17.164928 7.569587 3.869349 -15.827406 -7.643913 -0.540612 61.880419 -4.443875 1.755702 -7.893732 10.067589 0.184471 -0.457714 0.079528 -3.122448 -12.038472 0.341330 25.811566 76.117058 26.373504 1.207502 -12.171220 -4.143595 0.170511 0.712106 0.081632
-40.459722 62.104638 13.016308 175.198504 -51.567839 1.917977 3.121882 25.908258 2.207516 0.371950 4.222075 0.356796 0.606336 6.726605 0.582699 2.223751 21.160452 2.156439 6.198238 19.206357 0.852339 11.069564 0.015941 -0.360209 5.479270 7.690323 5.988384 -3.037329 -32.710074 -16.167344 -149.406974 -48.189342 172.680592 21.924268 -0.118656 -9.502652 -8.140530 4.068530 0.325532 -3.347047 -6.646383 14.602063 -163.525446 -68.282439 152.373279 -3.242689 -17.191038 7.568278 3.854268 -15.763092 -7.625325 -0.557279 61.871385 -4.456464 1.756128 -7.888487 10.064128 0.188241 -0.463132 0.085054 -3.137664 -11.983685 0.352588 25.826690 76.115681 26.382689 1.221194 -12.154125 -4.146033 0.154967 0.698340 0.086498
